<?xml version="1.0" encoding="utf-8"?>
<!-- Generator: Adobe Illustrator 23.0.4, SVG Export Plug-In . SVG Version: 6.00 Build 0)  -->
<svg version="1.1" id="Layer_1" xmlns="http://www.w3.org/2000/svg" xmlns:xlink="http://www.w3.org/1999/xlink" x="0px" y="0px"
	 viewBox="0 0 112.79 86.59" style="enable-background:new 0 0 112.79 86.59;" xml:space="preserve">
<g>
	<g>
		<path d="M56.4,86.59c-11.41,0-22.81-4.1-31.5-12.3c-8.71-8.23-13.51-19.23-13.51-30.99s4.8-22.77,13.5-30.99
			c17.37-16.4,45.63-16.4,62.99,0c8.71,8.23,13.51,19.23,13.51,30.99s-4.79,22.77-13.5,30.99l0,0C79.21,82.49,67.8,86.59,56.4,86.59
			z M56.4,31.58c-3.56,0-7.11,1.25-9.75,3.74c-2.31,2.18-3.58,5.01-3.58,7.97c0,2.96,1.27,5.79,3.58,7.97
			c5.28,4.99,14.21,4.99,19.5,0l0,0c2.31-2.18,3.58-5.01,3.58-7.97c0-2.96-1.27-5.79-3.58-7.97C63.5,32.83,59.95,31.58,56.4,31.58z"
			/>
	</g>
	<g>
		<path d="M111.54,67.73c-0.16,0-0.32-0.03-0.48-0.09L0.77,22.19c-0.64-0.26-0.94-0.99-0.68-1.63c0.26-0.64,0.99-0.94,1.63-0.68
			l110.29,45.45c0.64,0.26,0.94,0.99,0.68,1.63C112.5,67.44,112.03,67.73,111.54,67.73z"/>
	</g>
</g>
</svg>
